#!OML:ASF F:\VICON\USERDATA\INSTALL\rory3\rory3.ASF
:FULLY-SPECIFIED
:DEGREES
47
root 0.97408 17.7839 -14.9407 7.94337 -4.62014 -0.201726
lowerback 8.23077 0.121879 -1.3523
upperback 0.493089 0.143326 2.51593
thorax -4.11704 0.117416 3.36087
lowerneck -16.2492 -2.59671 -9.50752
upperneck 27.2113 -2.24481 4.41839
head 11.7708 -1.43865 2.9345
rclavicle -2.10712e-014 2.8625e-014
rhumerus -34.3809 -5.44515 -81.2166
rradius 42.6456
rwrist 0.662141
rhand -8.30718 14.5669
rfingers 7.12502
rthumb 17.6133 -14.6553
lclavicle -2.10712e-014 2.8625e-014
lhumerus -34.5381 6.68814 85.0351
lradius 40.3529
lwrist -1.4356
lhand -13.807 29.3526
lfingers 7.12502
lthumb 12.3152 58.97
rfemur -13.9757 5.98048 22.6644
rtibia 23.1666
rfoot -12.0591 -5.78452
rtoes 5.94115
lfemur -15.0249 -1.52331 -21.9375
ltibia 24.5301
lfoot -14.2246 4.64372
ltoes 3.03033
48
root 0.974491 17.7807 -14.9549 8.04959 -4.61038 -0.35551
lowerback 8.33096 0.164825 -1.23679
upperback 0.547249 0.211751 2.54913
thorax -4.12122 0.148922 3.32235
lowerneck -16.0595 -2.64145 -9.45152
upperneck 27.0556 -2.34225 4.41793
head 11.6791 -1.47495 2.90743
rclavicle -2.8625e-014 4.77083e-015
rhumerus -34.4089 -5.26747 -81.3226
rradius 43.3211
rwrist 0.517115
rhand -8.40156 14.362
rfingers 7.12502
rthumb 17.5224 -14.8683
lclavicle -2.8625e-014 4.77083e-015
lhumerus -34.6896 6.27247 85.2187
lradius 41.2385
lwrist -0.769275
lhand -14.2676 29.4955
lfingers 7.12502
lthumb 11.871 59.139
rfemur -14.3023 6.01812 22.8177
rtibia 23.4424
rfoot -12.0805 -5.82068
rtoes 5.81357
lfemur -15.3547 -1.49479 -21.7464
ltibia 24.8431
lfoot -14.3277 4.54856
ltoes 3.39016
49
root 0.974756 17.7667 -14.9719 8.21784 -4.51908 -0.501609
lowerback 8.39585 0.183398 -1.07818
upperback 0.682236 0.24949 2.55765
thorax -4.01892 0.162143 3.23636
lowerneck -16.1989 -2.62092 -9.3376
upperneck 26.9731 -2.35698 4.51274
head 11.6743 -1.45455 2.91983
rclavicle 2.18663e-015 -5.56597e-015
rhumerus -34.1591 -5.13015 -81.5035
rradius 43.9646
rwrist 0.332687
rhand -8.39151 14.4997
rfingers 7.12502
rthumb 17.5321 -14.7298
lclavicle 2.18663e-015 -5.56597e-015
lhumerus -34.55 5.9173 85.3835
lradius 41.8549
lwrist -0.148831
lhand -15.4927 28.1194
lfingers 7.12502
lthumb 10.6896 57.8274
rfemur -14.713 6.00521 22.9748
rtibia 23.7801
rfoot -12.1155 -5.89279
rtoes 5.42313
lfemur -15.8288 -1.52726 -21.5578
ltibia 25.1494
lfoot -14.2767 4.54961
ltoes 3.61446
50
root 0.975032 17.7512 -14.9908 8.34271 -4.44048 -0.431803
lowerback 8.57554 0.210342 -1.16888
upperback 0.77956 0.274327 2.53172
thorax -4.02008 0.17477 3.25801
lowerneck -16.6415 -3.0144 -9.656
upperneck 27.3559 -2.90855 4.91852
head 11.9721 -1.68603 3.05145
rclavicle 1.47101e-014 -1.51076e-014
rhumerus -33.9439 -4.87504 -81.6538
rradius 44.6789
rwrist -0.0580331
rhand -8.3112 14.6527
rfingers 7.12502
rthumb 17.6094 -14.5699
lclavicle 1.47101e-014 -1.51076e-014
lhumerus -34.3363 5.63188 85.5263
lradius 42.3331
lwrist 0.337592
lhand -16.2452 26.5502
lfingers 7.12502
lthumb 9.96356 56.2944
rfemur -15.1439 5.95019 22.8946
rtibia 24.2147
rfoot -12.2636 -5.92047
rtoes 5.39558
lfemur -16.2961 -1.57412 -21.6241
ltibia 25.4495
lfoot -14.1831 4.64474
ltoes 3.93302
51
root 0.974885 17.7401 -15.0084 8.38424 -4.39159 -0.459515
lowerback 8.90917 0.235879 -1.20875
upperback 0.776331 0.30584 2.55857
thorax -4.21258 0.193643 3.3066
lowerneck -16.4236 -3.0951 -9.80677
upperneck 27.3548 -3.03565 5.02957
head 11.9437 -1.7468 3.10063
rclavicle 7.35503e-015 3.89618e-014
rhumerus -34.0262 -4.56194 -81.7467
rradius 45.4327
rwrist -0.415431
rhand -8.31718 14.7569
rfingers 7.12502
rthumb 17.6036 -14.4662
lclavicle 7.35503e-015 3.89618e-014
lhumerus -34.4073 5.41005 85.6299
lradius 42.7282
lwrist 0.649632
lhand -16.7108 24.4709
lfingers 7.12502
lthumb 9.51435 54.2361
rfemur -15.5138 6.01982 22.9196
rtibia 24.7139
rfoot -12.4292 -6.04017
rtoes 5.44126
lfemur -16.6865 -1.51729 -21.5842
ltibia 25.79
lfoot -14.165 4.56136
ltoes 4.265
